<svg width="84" height="120" viewBox="0 0 84 120" fill="none" xmlns="http://www.w3.org/2000/svg">
<path d="M29.129 65L42 65L54.871 65L84 1.4687e-05L42 7.34351e-06L0 0L29.129 65Z" fill="url(#paint0_linear_452_557)"/>
<circle cx="42.0253" cy="93.0253" r="26.2236" fill="url(#paint1_radial_452_557)" stroke="#7C7A7A" stroke-width="0.250943"/>
<circle cx="42.0244" cy="93.0253" r="18.6953" fill="url(#paint2_radial_452_557)" stroke="#7C7A7A" stroke-width="0.250943"/>
<path d="M42.1512 84.0024L33.3682 101.569L42.1512 97.665M42.1512 84.0024L42.1512 97.665M42.1512 84.0024L50.9343 101.569L42.1512 97.665" stroke="#42403B" stroke-width="1.36402"/>
<path d="M42.1512 84.0024L42.1512 97.665L33.3682 101.569L42.1512 84.0024Z" fill="#FC0303"/>
<path d="M42.1517 84.0029L42.1517 97.6655L50.9348 101.569L42.1517 84.0029Z" fill="#FD5050"/>
<defs>
<linearGradient id="paint0_linear_452_557" x1="42" y1="7.34351e-06" x2="42" y2="65" gradientUnits="userSpaceOnUse">
<stop stop-color="#B0B0B0" stop-opacity="0"/>
<stop offset="1" stop-color="#C0C0C0" stop-opacity="0.4"/>
</linearGradient>
<radialGradient id="paint1_radial_452_557" cx="0" cy="0" r="1" gradientUnits="userSpaceOnUse" gradientTransform="translate(42.0253 93.0253) rotate(86.0548) scale(51.0625)">
<stop stop-color="#EEEEEE" stop-opacity="0"/>
<stop offset="1" stop-color="#EEEEEE" stop-opacity="0.5"/>
</radialGradient>
<radialGradient id="paint2_radial_452_557" cx="0" cy="0" r="1" gradientUnits="userSpaceOnUse" gradientTransform="translate(42.0244 93.0253) rotate(86.0548) scale(36.4732)">
<stop stop-color="#EEEEEE" stop-opacity="0"/>
<stop offset="1" stop-color="#EEEEEE" stop-opacity="0.5"/>
</radialGradient>
</defs>
</svg>
